<svg id="Слой_1" data-name="Слой 1" xmlns="http://www.w3.org/2000/svg" viewBox="0 0 345 130.0438"><defs><style>.cls-1{fill:#141414;}</style></defs><title>Tele2_logo</title><path class="cls-1" d="M5,51.346V70.12l50.646-5.571V44.229L5,51.346M21.162,71.262v64.333H39.704V69.367L21.162,71.262M62.486,43.268v92.327H82.024V40.521L62.486,43.268m23.178-3.259V61.248l28.213-3.104V36.045L85.664,40.009m0,37.047V98.682l18.52-1.01V75.462l-18.52,1.594m0,37.214v21.325h28.213V113.419l-28.213.851M186.839,25.758V135.595h25.613V22.158l-25.613,3.6m30.396-4.273V46.75l37.326-4.104V16.238l-37.326,5.247m0,44.266V91.484L241.7,90.148V63.656l-24.465,2.095m0,44.542v25.302h37.326V109.166l-37.326,1.127M121.342,34.994V135.595h22.256V31.865l-22.256,3.129m26.41,77.403v23.197h32.306V111.422l-32.306.975M338.244,14.996c-8.095-7.648-19.964-10.785-32.946-8.92V34.098c5.257-.292,9.517,1.659,11.415,5.587,2.997,6.193-.095,15.485-7.389,24.094-11.258,13.285-41.195,40.477-41.195,40.477l42.976-1.413c26.259-25.654,35.689-41.226,37.381-60.661a33.2309,33.2309,0,0,0-10.242-27.186M350,135.595V106.274L262.832,108.9m0-.001.009,26.695H350M300.287,6.705c-25.323,5.393-37.758,24.023-36.323,54.422l27-2.396c-1.23-17.174,4.023-21.248,9.336-23.488l-.013-28.538" transform="translate(-5 -5.5512)"/></svg>